<svg width="15" height="15" fill="none" xmlns="http://www.w3.org/2000/svg">
    <g clip-path="url(#a)">
        <path fill-rule="evenodd" clip-rule="evenodd" d="M5.372 11.501a.47.47 0 0 1 0-.663L8.714 7.5 5.372 4.162a.47.47 0 1 1 .665-.663l3.591 3.589a.45.45 0 0 1 .117.412.45.45 0 0 1-.117.412l-3.59 3.59a.472.472 0 0 1-.666 0ZM15 7.5A7.5 7.5 0 0 0 7.5 0 7.5 7.5 0 0 0 0 7.5 7.5 7.5 0 0 0 7.5 15 7.5 7.5 0 0 0 15 7.5Z" fill="#FF8C32"/>
    </g>
    <defs>
        <clipPath id="a">
            <path fill="#fff" transform="rotate(90 7.5 7.5)" d="M0 0h15v15H0z"/>
        </clipPath>
    </defs>
</svg>
