<svg width="50" height="50" fill="none" xmlns="http://www.w3.org/2000/svg"><path d="M38.345 14.655a3 3 0 1 0 0-6 3 3 0 0 0 0 6zM25 12.162a12.837 12.837 0 1 0 0 25.675 12.837 12.837 0 0 0 0-25.675zm0 21.171a8.333 8.333 0 1 1 0-16.666 8.333 8.333 0 0 1 0 16.666z" fill="#F0F0F0"/><path d="M25 4.505c6.675 0 7.466.025 10.102.145 1.585.02 3.156.31 4.642.861a8.282 8.282 0 0 1 4.745 4.745 13.84 13.84 0 0 1 .86 4.642c.121 2.636.147 3.427.147 10.102 0 6.675-.026 7.466-.146 10.102a13.84 13.84 0 0 1-.861 4.643 8.283 8.283 0 0 1-4.745 4.744 13.84 13.84 0 0 1-4.642.861c-2.636.12-3.426.146-10.102.146s-7.466-.026-10.102-.146a13.84 13.84 0 0 1-4.642-.86 8.281 8.281 0 0 1-4.745-4.745 13.837 13.837 0 0 1-.86-4.643C4.53 32.466 4.503 31.675 4.503 25c0-6.675.026-7.466.146-10.102.02-1.585.31-3.155.861-4.642a8.281 8.281 0 0 1 4.745-4.745 13.837 13.837 0 0 1 4.642-.86c2.636-.121 3.427-.146 10.102-.146zM25 0c-6.79 0-7.641.029-10.307.15a18.348 18.348 0 0 0-6.068 1.163 12.784 12.784 0 0 0-7.313 7.312A18.347 18.347 0 0 0 .15 14.694C.03 17.358 0 18.21 0 25c0 6.79.029 7.641.15 10.307a18.348 18.348 0 0 0 1.163 6.069 12.783 12.783 0 0 0 7.312 7.313 18.345 18.345 0 0 0 6.069 1.162C17.358 49.97 18.21 50 25 50c6.79 0 7.641-.029 10.307-.15a18.35 18.35 0 0 0 6.069-1.163 12.784 12.784 0 0 0 7.313-7.312 18.345 18.345 0 0 0 1.162-6.069C49.97 32.642 50 31.79 50 25c0-6.79-.029-7.641-.15-10.307a18.35 18.35 0 0 0-1.163-6.068 12.784 12.784 0 0 0-7.312-7.311A18.348 18.348 0 0 0 35.306.15C32.642.03 31.79 0 25 0z" fill="#F0F0F0"/></svg>