<svg width="50" height="50" fill="none" xmlns="http://www.w3.org/2000/svg"><path d="M46.25 0H3.75C1.667 0 0 1.667 0 3.542V46.25c0 1.875 1.667 3.542 3.75 3.542h42.5c2.083 0 3.75-1.667 3.75-3.542V3.542C50 1.667 48.333 0 46.25 0zM14.792 42.5H7.5V18.75h7.292V42.5zM11.25 15.417c-2.292 0-4.375-1.875-4.375-4.375S8.75 6.667 11.25 6.667c2.292 0 4.375 1.875 4.375 4.375s-2.083 4.375-4.375 4.375zm31.458 26.875h-7.291V30.625c0-2.708 0-6.458-3.959-6.458-3.958 0-4.375 3.125-4.375 6.041v11.875h-7.291V18.75h6.875v3.125h.208c1.042-1.875 3.542-3.958 7.083-3.958 7.5 0 8.959 5 8.959 11.458v12.917h-.209z" fill="#F0F0F0"/></svg>