<svg width="100" height="100" fill="none" xmlns="http://www.w3.org/2000/svg"><path d="M18.75 6.25h62.5c6.875 0 12.5 5.625 12.5 12.5v62.5c0 6.875-5.625 12.5-12.5 12.5h-62.5c-6.875 0-12.5-5.625-12.5-12.5v-62.5c0-6.875 5.625-12.5 12.5-12.5z" fill="#000"/><path d="M62.188 22.5c0-.625 0-1.563.312-2.188.313-2.812 1.875-4.375 4.688-4.687 1.874-.313 4.062-.313 6.25 0 2.812.313 4.374 2.188 4.687 5.313v8.125h-5V22.5c0-1.25-.313-1.875-1.25-2.188h-2.5c-.938 0-1.25.625-1.25 1.563V45c0 .938.625 1.563 1.563 1.563h1.562c.938 0 1.563-.626 1.563-1.563v-8.125h5v8.75c0 .625 0 1.25-.313 2.188-.625 1.874-1.875 3.437-3.75 3.75a25.326 25.326 0 0 1-6.875 0c-2.5-.313-4.063-2.188-4.375-4.688v-2.188c-.313-7.812-.313-15-.313-22.187zM54.063 15.625h5.312V51.25h-5V15.625h-.313zM54.375 60h2.813v10.313h-2.813v-5.938h-.313c-.937 1.25-1.562 2.5-2.5 4.063a28.53 28.53 0 0 1-2.5-4.063h-.312v5.938h-2.5V60h2.813c.937 1.25 1.562 2.5 2.5 4.063 1.25-1.563 1.874-2.813 2.812-4.063zM22.188 15.625H33.75v5H27.5v10h6.25v4.688H27.5v10.624h6.563v4.688H22.187v-35zM32.188 69.063c-1.25.937-2.5 1.562-4.063 1.562-2.813 0-5.313-1.25-5.938-4.375-.625-4.063 2.188-6.563 5.313-6.563 1.25 0 2.813.313 3.75.938.313 0 .313.313.625.313-.625.937-1.25 1.562-1.875 2.187-.938-.625-2.188-1.25-3.438-.625-.625 0-.937.313-1.562.938-.938 1.25-.625 3.124.313 4.062.937.938 2.812.938 3.75.313v-1.25H27.5v-2.188h4.688v4.688zM58.75 85.313l-8.438 2.812h-1.25C44.688 86.562 40 85 35.626 83.437c0 0-.313 0-.625-.312h29.375c-1.563.938-3.438 1.563-5.625 2.188zM68.125 70.313h-8.438V60h8.126v2.188h-5.626v1.874h5v2.188h-5v1.875h5.626v2.188h.312zM76.563 70c-1.876 1.25-5.938.625-7.5-.938.624-.624.937-1.25 1.562-1.874.938.624 1.875 1.25 3.125 1.25h.938c.312 0 .312-.313.624-.626 0-.312-.312-.624-.312-.624-.625-.313-.938-.313-1.563-.626-.624-.312-1.25-.312-1.874-.624-.938-.313-1.563-.938-1.876-2.188 0-1.25.313-2.5 1.25-3.125 1.25-.938 2.813-.938 4.376-.625.937.313 1.874.625 2.5 1.25-.313.625-.938 1.25-1.25 1.875l-2.813-.938h-.625c-.313 0-.625.313-.625.626 0 .312.313.624.313.624.624.313 1.25.313 1.874.626.626.312 1.25.312 1.876.624.937.313 1.562 1.25 1.562 2.5s-.313 2.188-1.563 2.813zM51.563 21.25c0-1.563-.626-3.438-1.876-4.375-1.25-.938-2.5-1.25-3.75-1.25h-9.062v35.313h5.313V38.124h4.687c2.813-.313 4.688-2.188 4.688-5V21.25zM46.25 31.875c0 .938-.625 1.563-1.563 1.563h-2.812V20.624h2.5c.938 0 1.563.625 1.563 1.875.312 3.125.312 6.25.312 9.375zM40.313 60h-2.5C36.25 63.438 35 66.875 33.437 70.625h2.813c.313-.625.625-1.25.625-1.875h4.375l.938 1.875H45c-1.563-3.75-3.125-7.188-4.688-10.625zm-2.5 6.25c.312-.938.937-1.875 1.25-3.125.312 1.25.937 2.188 1.25 3.125h-2.5z" fill="#fff"/></svg>