<svg width="100" height="100" fill="none" xmlns="http://www.w3.org/2000/svg"><g clip-path="url(#a)"><path fill-rule="evenodd" clip-rule="evenodd" d="M93.75 46.2c0-16.181-19.588-29.3-43.75-29.3S6.25 30.02 6.25 46.2c0 14.422 15.567 26.382 36.05 28.821v9.35l14.926-.007V75.07a60.564 60.564 0 0 0 10.443-2.076l6.06 11.381 16.866-.007-10.165-17.14c8.203-5.326 13.32-12.77 13.32-21.027zm-70.307 2.188c0-11.062 14.889-20.031 33.254-20.031 18.366 0 31.918 6.134 31.918 20.031a17.091 17.091 0 0 1-10.62 16.018c-.3-.198-.61-.38-.93-.546a32.737 32.737 0 0 0-4.187-1.578s13.044-.969 13.044-13.956-13.65-13.232-13.65-13.232H42.3v31.33c-11.144-3.237-18.857-10.085-18.857-18.036zm42.944 5.766-9.04.003.005-8.378 9.035.004a3.897 3.897 0 0 1 4.188 4.11 4.137 4.137 0 0 1-4.188 4.261zm-9.164 10.921h4.008a2.746 2.746 0 0 1 2.002.91c.61.588 1.145 1.249 1.593 1.968-2.524.29-5.061.441-7.602.455l-.001-3.333z" fill="#000"/></g><defs><clipPath id="a"><path fill="#fff" d="M0 0h100v100H0z"/></clipPath></defs></svg>