<svg width="100" height="100" fill="none" xmlns="http://www.w3.org/2000/svg"><path d="M24.633 61.543a9.191 9.191 0 1 1-9.192-9.2h9.192v9.2zM29.266 61.543a9.191 9.191 0 0 1 18.382 0v23.016a9.191 9.191 0 1 1-18.382 0V61.543zM38.457 24.633a9.191 9.191 0 1 1 9.2-9.192v9.192h-9.2zM38.457 29.266a9.191 9.191 0 0 1 0 18.382H15.441a9.191 9.191 0 1 1 0-18.382h23.016zM75.367 38.457a9.191 9.191 0 1 1 9.192 9.2h-9.192v-9.2zM70.734 38.457a9.191 9.191 0 0 1-18.382 0V15.441a9.191 9.191 0 1 1 18.382 0v23.016zM61.543 75.367a9.191 9.191 0 1 1-9.2 9.192v-9.192h9.2zM61.543 70.734a9.191 9.191 0 0 1 0-18.382h23.016a9.191 9.191 0 1 1 0 18.382H61.543z" fill="#000"/></svg>