<svg width="105" height="118" fill="none" xmlns="http://www.w3.org/2000/svg"><path d="M93.533 35.566c-8.197-9.484-19.213-16.357-31.61-19.425-26.13 8.537-43.908 34.225-41.377 62.822a60.892 60.892 0 0 0 2.552 12.815c1.63-29.533 24.69-54.156 54.969-56.836a60.232 60.232 0 0 1 15.466.624z" fill="url(#a)"/><path d="M89.233 18.863C78.744 10.067 65.682 4.57 51.785 3.417 25.084 17.165 10.376 47.958 18.06 78.355a66.094 66.094 0 0 0 4.976 13.37c-3.368-32.127 17.23-62.687 49.418-70.845a65.849 65.849 0 0 1 16.779-2.017z" fill="url(#b)"/><path d="M61.926 16.143c-26.132 8.537-43.91 34.225-41.378 62.822a60.668 60.668 0 0 0 2.465 12.51C19.78 59.438 40.35 29.02 72.453 20.88c.501-.127 1.004-.214 1.506-.33-3.822-1.863-7.839-3.37-12.033-4.406z" fill="url(#c)"/><path d="M52.994 11.553C41.708 7.85 29.407 7.64 17.83 11.205.74 30.925-1.19 60.51 14.8 82.533a57.657 57.657 0 0 0 8.32 9.174c-13.066-24.812-6.318-56.116 17-73.103a57.3 57.3 0 0 1 12.875-7.05z" fill="url(#d)"/><path d="M42.545 9.204c-20.719 15.499-31.23 42.471-24.487 69.151a62.29 62.29 0 0 0 1.077 3.746c-7.126-22.834.596-48.645 20.983-63.497 4.071-2.965 8.4-5.3 12.874-7.049-3.4-1.12-6.901-1.877-10.447-2.35z" fill="url(#e)"/><path d="M12.512 80.94c7.45 10.322 17.988 18.256 30.266 22.467 27.225-6.292 47.528-30.671 47.528-59.808 0-4.527-.507-8.935-1.435-13.185-4.297 29.712-29.854 52.542-60.754 52.542-5.401 0-10.622-.707-15.605-2.015z" fill="url(#f)"/><path d="M15.369 98.211c9.832 9.832 22.566 16.559 36.535 18.968C80.172 105.67 97.825 75.854 92.77 44.435a66.994 66.994 0 0 0-3.84-13.962c.53 32.782-23.066 61.835-56.39 67.202a67.04 67.04 0 0 1-17.171.536z" fill="url(#g)"/><path d="M42.776 103.405C70 97.113 90.305 72.734 90.305 43.597c0-4.418-.488-8.717-1.375-12.869.402 32.679-23.153 61.591-56.39 66.947-.518.084-1.035.127-1.554.199 3.704 2.225 7.635 4.109 11.79 5.531z" fill="url(#h)"/><path d="M51.408 108.845c11.096 4.755 23.534 6.067 35.575 3.499 19.073-18.408 23.68-48.145 9.463-71.84a58.528 58.528 0 0 0-7.602-10.02C99.85 56.738 90.21 87.782 65.077 102.87a58.295 58.295 0 0 1-13.669 5.976z" fill="url(#i)"/><path d="M61.778 112.155c22.369-13.815 35.43-40.143 30.994-67.72a63.089 63.089 0 0 0-.755-3.883c5.169 23.723-4.964 49.126-26.939 62.317a58.197 58.197 0 0 1-13.668 5.974c3.343 1.437 6.82 2.516 10.368 3.312z" fill="url(#j)"/><defs><linearGradient id="a" x1="61.178" y1="104.015" x2="49.311" y2="-30.045" gradientUnits="userSpaceOnUse"><stop stop-color="#29D3DA"/><stop offset=".519" stop-color="#07F"/><stop offset=".999" stop-color="#064093"/><stop offset="1" stop-color="#084698"/></linearGradient><linearGradient id="b" x1="37.222" y1="99.057" x2="71.956" y2="-41.403" gradientUnits="userSpaceOnUse"><stop offset=".012" stop-color="#07F"/><stop offset=".519" stop-color="#00135E" stop-opacity=".79"/><stop offset="1" stop-color="#747474"/></linearGradient><linearGradient id="c" x1="43.269" y1="83.333" x2="49.445" y2="23.23" gradientUnits="userSpaceOnUse"><stop offset=".012" stop-color="#064093"/><stop offset=".519" stop-color="#AEAEAE"/><stop offset="1" stop-color="#362E2E"/></linearGradient><linearGradient id="d" x1="20.165" y1="56.564" x2="63.768" y2="-102.575" gradientUnits="userSpaceOnUse"><stop stop-color="#FF8C32"/><stop offset=".519" stop-color="#07F"/><stop offset=".999" stop-color="#064093"/><stop offset="1" stop-color="#084698"/></linearGradient><linearGradient id="e" x1="38.743" y1="70.527" x2="28.491" y2="-5.655" gradientUnits="userSpaceOnUse"><stop stop-color="#29D3DA"/><stop offset=".519" stop-color="#07F"/><stop offset=".999" stop-color="#064093"/><stop offset="1" stop-color="#084698"/></linearGradient><linearGradient id="f" x1="51.409" y1="14.635" x2="51.409" y2="151.23" gradientUnits="userSpaceOnUse"><stop stop-color="#29D3DA"/><stop offset=".519" stop-color="#07F"/><stop offset=".999" stop-color="#064093"/><stop offset="1" stop-color="#084698"/></linearGradient><linearGradient id="g" x1="75.222" y1="21.791" x2="27.596" y2="160.732" gradientUnits="userSpaceOnUse"><stop offset=".012" stop-color="#07F"/><stop offset=".519" stop-color="#00135E" stop-opacity=".79"/><stop offset="1" stop-color="#747474"/></linearGradient><linearGradient id="h" x1="67.689" y1="37.147" x2="56.084" y2="97.365" gradientUnits="userSpaceOnUse"><stop offset=".012" stop-color="#064093"/><stop offset=".519" stop-color="#AEAEAE"/><stop offset="1" stop-color="#362E2E"/></linearGradient><linearGradient id="i" x1="88.685" y1="66.278" x2="30.431" y2="223.322" gradientUnits="userSpaceOnUse"><stop stop-color="#EC6800"/><stop offset=".519" stop-color="#07F"/><stop offset=".999" stop-color="#064093"/><stop offset="1" stop-color="#084698"/></linearGradient><linearGradient id="j" x1="71.124" y1="50.499" x2="74.666" y2="128.436" gradientUnits="userSpaceOnUse"><stop stop-color="#29D3DA"/><stop offset=".519" stop-color="#07F"/><stop offset=".999" stop-color="#064093"/><stop offset="1" stop-color="#084698"/></linearGradient></defs></svg>