<svg width="50" height="40" fill="none" xmlns="http://www.w3.org/2000/svg"><path d="M50 4.74a21.021 21.021 0 0 1-5.89 1.593A10.157 10.157 0 0 0 48.622.75a20.598 20.598 0 0 1-6.517 2.448A10.328 10.328 0 0 0 34.616 0c-5.67 0-10.257 4.52-10.257 10.094a9.71 9.71 0 0 0 .265 2.302A29.24 29.24 0 0 1 3.478 1.844a9.968 9.968 0 0 0-1.395 5.073c0 3.5 1.826 6.593 4.584 8.406a10.155 10.155 0 0 1-4.665-1.26v.124c0 4.896 3.542 8.97 8.23 9.896-.882.235-1.79.354-2.703.355a9.828 9.828 0 0 1-1.928-.188c1.303 4.01 5.096 6.927 9.589 7.01a20.791 20.791 0 0 1-12.742 4.323A21.17 21.17 0 0 1 0 35.438 29.028 29.028 0 0 0 15.702 40c18.892 0 29.213-15.385 29.213-28.73 0-.437-.012-.874-.033-1.301A20.676 20.676 0 0 0 50 4.739z" fill="#F0F0F0"/></svg>